<svg xmlns="http://www.w3.org/2000/svg" viewBox="0 0 300 48" fill="none">
  <!-- Concept D: Sunrise Horizon — Full wordmark -->
  <g>
    <rect x="2" y="2" width="44" height="44" rx="10" fill="#1B4B7A"/>
    <path d="M2 36 L14 18 L20 26 L26 16 L38 30 L46 24 L46 46 L2 46 Z" fill="#163D63" opacity="0.6"/>
    <path d="M2 38 L16 24 L22 30 L30 20 L46 34 L46 46 L2 46 Z" fill="#12334F" opacity="0.4"/>
    <circle cx="24" cy="22" r="9" fill="#E8923E"/>
    <line x1="24" y1="10" x2="24" y2="6" stroke="#E8923E" stroke-width="1.2" opacity="0.5" stroke-linecap="round"/>
    <line x1="32" y1="14" x2="35" y2="11" stroke="#E8923E" stroke-width="1" opacity="0.4" stroke-linecap="round"/>
    <line x1="16" y1="14" x2="13" y2="11" stroke="#E8923E" stroke-width="1" opacity="0.4" stroke-linecap="round"/>
    <line x1="35" y1="22" x2="39" y2="22" stroke="#E8923E" stroke-width="1" opacity="0.3" stroke-linecap="round"/>
    <line x1="13" y1="22" x2="9" y2="22" stroke="#E8923E" stroke-width="1" opacity="0.3" stroke-linecap="round"/>
    <line x1="4" y1="28" x2="44" y2="28" stroke="#FFFFFF" stroke-width="0.5" opacity="0.2"/>
    <path d="M30 14 Q31.5 12.5 33 14" stroke="#FFFFFF" stroke-width="0.7" fill="none" opacity="0.4"/>
    <path d="M34 12 Q35 11 36 12" stroke="#FFFFFF" stroke-width="0.5" fill="none" opacity="0.3"/>
  </g>
  <text x="58" y="22" font-family="'Playfair Display', Georgia, serif" font-size="24" font-weight="700" fill="#1B4B7A" letter-spacing="-0.5">Travel</text>
  <text x="145" y="22" font-family="'Playfair Display', Georgia, serif" font-size="24" font-weight="700" fill="#E8923E" letter-spacing="-0.5">Sense</text>
  <text x="58" y="38" font-family="'Inter', Arial, sans-serif" font-size="8" font-weight="400" fill="#94A3B8" letter-spacing="2.5">YOUR TRUSTED TRAVEL PARTNER</text>
</svg>
