<svg xmlns="http://www.w3.org/2000/svg" viewBox="0 0 300 48" fill="none">
  <!-- Concept I: Wave & Compass — Full wordmark, navy + rose gold -->
  <g>
    <circle cx="24" cy="24" r="22" fill="#142850"/>
    <path d="M4 28 Q10 24 16 28 Q22 32 28 28 Q34 24 40 28 Q44 30 46 29" stroke="#D4917B" stroke-width="1.5" fill="none" opacity="0.7" stroke-linecap="round"/>
    <path d="M4 33 Q10 29 16 33 Q22 37 28 33 Q34 29 40 33 Q44 35 46 34" stroke="#D4917B" stroke-width="1" fill="none" opacity="0.3" stroke-linecap="round"/>
    <path d="M20 22 L28 14" stroke="#FFFFFF" stroke-width="1.8" stroke-linecap="round"/>
    <path d="M28 14 L25 17" stroke="#FFFFFF" stroke-width="1.5" stroke-linecap="round"/>
    <path d="M28 14 L25.5 14.5" stroke="#FFFFFF" stroke-width="1.5" stroke-linecap="round"/>
    <circle cx="20" cy="22" r="3" stroke="#D4917B" stroke-width="0.8" fill="none"/>
    <circle cx="20" cy="22" r="1.2" fill="#D4917B"/>
    <circle cx="36" cy="10" r="0.8" fill="#FFFFFF" opacity="0.5"/>
    <circle cx="38" cy="16" r="0.5" fill="#FFFFFF" opacity="0.3"/>
    <circle cx="12" cy="12" r="0.6" fill="#FFFFFF" opacity="0.4"/>
  </g>
  <text x="58" y="22" font-family="'Playfair Display', Georgia, serif" font-size="24" font-weight="700" fill="#142850" letter-spacing="-0.5">Travel</text>
  <text x="145" y="22" font-family="'Playfair Display', Georgia, serif" font-size="24" font-weight="700" fill="#D4917B" letter-spacing="-0.5">Sense</text>
  <text x="58" y="38" font-family="'Inter', Arial, sans-serif" font-size="8" font-weight="400" fill="#94A3B8" letter-spacing="2.5">YOUR TRUSTED TRAVEL PARTNER</text>
</svg>
